# xmcd CD database file
#
# Track frame offsets:
#	225
#	7524
#	22478
#	34374
#	47563
#	62549
#	75813
#	89457
#	101357
#	116608
#	130595
#	144053
#	157767
#	170804
#	183948
#	186341
#
# Disc length: 2680 seconds
#
# Revision: 3
# Processed by: cddbd v1.5.1PL0 Copyright (c) Steve Scherf et al.
# Submitted via: CDex 1.51
#
DISCID=bc0a7510
DTITLE=Louis Armstrong - When The Saints Go Marching In [CD1]
DYEAR=1900
DGENRE=Jazz
TTITLE0=When The Saints Go Marchin' In
TTITLE1=Lovely Weather We're Having
TTITLE2=Blues For Yesterday
TTITLE3=You Wont Be Satisfied Until You Break My Heart
TTITLE4=Please Stop Playing Those Blues Boy
TTITLE5=No Variety Blues
TTITLE6=I Believe
TTITLE7=Boog It
TTITLE8=Why Doubt My Love ?
TTITLE9=Joseph'n His Brudders
TTITLE10=The Blues Are Brewin'
TTITLE11=Do You Know What It Means To Miss New Orleans
TTITLE12=Eudie
TTITLE13=Before Long
TTITLE14=Reymond Street Blues
TTITLE15=We Have All The time In The World
EXTD=
EXTT0=
EXTT1=
EXTT2=
EXTT3=
EXTT4=
EXTT5=
EXTT6=
EXTT7=
EXTT8=
EXTT9=
EXTT10=
EXTT11=
EXTT12=
EXTT13=
EXTT14=
EXTT15=
PLAYORDER=
